# xmcd
#
# Track frame offsets:
#	150
#	18211
#	42581
#	60812
#	81344
#	103548
#	124910
#	146445
#	169259
#	188987
#
# Disc length: 2973 seconds
#
# Revision: 0
# Processed by: cddbd v1.5.1PL0 Copyright (c) Steve Scherf et al.
# Submitted via: dBpowerAMP V4.0
#
DISCID=810b9b0a
DTITLE=Chris Daugherty - Drinkin and Thinkin
DYEAR=2003
DGENRE=Country
TTITLE0=Juke Juke Jukin
TTITLE1=Track02Lonely Hearts
TTITLE2=Track03Drinkin and Thinkin
TTITLE3=Track04Tangled Web
TTITLE4=Th Way I Still Love You
TTITLE5=Sillets Gettin Rusty
TTITLE6=Didnt Leave Much
TTITLE7=Twent Nine Years
TTITLE8=Still Hear daddy Singin
TTITLE9=Picture In My Pocket
EXTD=Album Title: Drinkin and Thinkin\nArtist: Chris Daugherty\n2003 BMI\nCopyrighted
EXTT0=
EXTT1=
EXTT2=
EXTT3=
EXTT4=
EXTT5=
EXTT6=
EXTT7=
EXTT8=
EXTT9=
PLAYORDER=
